<svg xmlns="http://www.w3.org/2000/svg" xml:space="preserve" id="notifications" x="0" y="0" style="enable-background:new 0 0 100 100" version="1.1" viewBox="0 0 100 100">
  <path d="M81.9,72.57c-3.16-4.21-4.9-9.43-4.9-14.7v-15.5c0-14.55-11.57-26.45-26-26.97v-5.03c0-0.55-0.45-1-1-1s-1,0.45-1,1v5.03
	c-14.43,0.53-26,12.42-26,26.97v15.5c0,5.27-1.74,10.49-4.9,14.7c-0.71,0.95-1.1,2.12-1.1,3.3c0,3.03,2.47,5.5,5.5,5.5h16.55
	c0.51,5.6,5.22,10,10.95,10s10.44-4.4,10.95-10H77.5c3.03,0,5.5-2.47,5.5-5.5C83,74.69,82.61,73.52,81.9,72.57z M25,42.37
	c0-13.79,11.21-25,25-25s25,11.21,25,25v15.5c0,3.25,0.63,6.48,1.79,9.5H23.21c1.16-3.02,1.79-6.25,1.79-9.5V42.37z M50,89.37
	c-4.62,0-8.44-3.51-8.94-8h17.88C58.44,85.87,54.62,89.37,50,89.37z M77.5,79.37h-55c-1.93,0-3.5-1.57-3.5-3.5
	c0-0.75,0.25-1.5,0.7-2.1c1.03-1.37,1.9-2.86,2.65-4.4h55.31c0.74,1.54,1.61,3.03,2.65,4.4c0.45,0.6,0.7,1.35,0.7,2.1
	C81,77.8,79.43,79.37,77.5,79.37z"></path>
</svg>
